<svg xmlns="http://www.w3.org/2000/svg" width="32" height="32" viewBox="0 0 32 32"><g fill="none" fill-rule="evenodd"><path fill="#42C8CE" d="M17.599 16.08l.02.007c2.094-1.649 4.062-2.402 5.862-2.235.245.023.474.063.69.114-5.247-7.079-11.689-5.727-15.544-1.31-4.028 4.616-2.667 8.426-.906 8.954 1.494.446 2.987.64 8.83-4.644.363-.327.711-.62 1.048-.886"/><path fill="#3C7087" d="M23.394 14.63c-1.492-.129-3.15.482-4.932 1.798 4.057 1.995 4.012 7.482 5.719 5.878 1.705-1.614 2.579-4.09.83-7.188a4.08 4.08 0 0 0-1.617-.489"/></g></svg>